<svg xmlns="http://www.w3.org/2000/svg" width="800" height="300" viewBox="0 0 370 88.42">
  <g transform="matrix(0.8842,0,0,0.8842,0,0)" fill="#000000">
    <path fill="#000000" d="M79.167,10.416C79.167,4.671,74.494,0,68.75,0c-5.744,0-10.417,4.671-10.417,10.416  c0,5.029,3.585,9.237,8.333,10.205v15.865l-25,19.642v-18.84C46.416,36.319,50,32.112,50,27.083c0-5.745-4.674-10.417-10.417-10.417  s-10.417,4.672-10.417,10.417c0,5.029,3.584,9.236,8.333,10.205v18.84l-25-19.642V20.621c4.749-0.968,8.333-5.176,8.333-10.205  C20.833,4.671,16.16,0,10.417,0C4.673,0,0,4.671,0,10.416c0,5.029,3.585,9.237,8.333,10.205v17.892L37.5,61.426v17.952  c-4.749,0.964-8.333,5.176-8.333,10.205c0,5.741,4.673,10.417,10.417,10.417S50,95.324,50,89.583c0-5.029-3.585-9.241-8.333-10.205  V61.426l29.167-22.913V20.621C75.583,19.653,79.167,15.445,79.167,10.416z M4.167,10.416c0-3.446,2.803-6.25,6.25-6.25  c3.446,0,6.25,2.804,6.25,6.25s-2.804,6.25-6.25,6.25C6.97,16.666,4.167,13.862,4.167,10.416z M68.75,16.666  c-3.447,0-6.25-2.804-6.25-6.25s2.803-6.25,6.25-6.25c3.446,0,6.25,2.804,6.25,6.25S72.197,16.666,68.75,16.666z"/>
  </g>
  <g transform="matrix(2.7652,0,0,2.7652,89.3364,9.506)" fill="#000000">
    <path d="M11.24 5.84 l0 1.2 l-4.84 0 l0 12.96 l-1.32 0 l0 -12.96 l-4.84 0 l0 -1.2 l11 0 z M20.32 14.6 q0 -1.26 -0.94 -2.13 t-2.28 -0.87 q-1.3 0 -2.24 0.87 t-1.1 2.13 l6.56 0 z M17.18 10.52 q1.92 0 3.12 1.24 t1.22 3.2 l0 0.72 l-7.76 0 q0.08 1.56 1.03 2.51 t2.47 0.97 q0.94 0 1.79 -0.45 t1.31 -1.19 l0.88 0.74 q-1.3 1.98 -4 1.98 q-2.12 -0.02 -3.39 -1.38 t-1.29 -3.5 q0 -2.08 1.31 -3.45 t3.31 -1.39 z M28.540000000000003 10.52 q2 0 3.44 1.6 l-0.96 0.72 q-1.16 -1.24 -2.5 -1.24 q-1.56 0 -2.59 1.06 t-1.05 2.72 q0 1.66 1.04 2.71 t2.6 1.07 q1.48 0 2.5 -1.28 l0.92 0.76 q-1.34 1.58 -3.4 1.6 q-2.1 0 -3.46 -1.36 t-1.4 -3.5 q0 -2.06 1.35 -3.44 t3.51 -1.42 z M33.82 4.880000000000001 l1.2 0 l0 7.5 l0.04 0 q0.4 -0.86 1.27 -1.36 t1.89 -0.5 q3.52 0 3.52 3.9 l0 5.58 l-1.2 0 l0 -5.46 q0 -2.94 -2.32 -2.94 q-1.5 0 -2.35 1.03 t-0.85 2.71 l0 4.66 l-1.2 0 l0 -15.12 z M46.6 5.84 l0 12.96 l6.6 0 l0 1.2 l-7.92 0 l0 -14.16 l1.32 0 z M55.14 10.76 l1.2 0 l0 9.24 l-1.2 0 l0 -9.24 z M55.74 6.199999999999999 q0.4 0 0.65 0.26 t0.25 0.64 t-0.25 0.64 t-0.65 0.26 q-0.38 0 -0.64 -0.26 t-0.26 -0.64 t0.26 -0.64 t0.64 -0.26 z M60.42 8.1 l1.2 0 l0 2.66 l2.64 0 l0 1.08 l-2.64 0 l0 6.04 q0 0.58 0.34 0.93 t0.94 0.35 q0.66 0 1.36 -0.32 l0.1 1.08 q-0.9 0.32 -1.58 0.32 q-1.18 0 -1.77 -0.66 t-0.59 -1.7 l0 -6.04 l-2 0 l0 -1.08 l2 0 l0 -2.66 z M68.06 5.84 l0 6.24 l7.92 0 l0 -6.24 l1.32 0 l0 14.16 l-1.32 0 l0 -6.72 l-7.92 0 l0 6.72 l-1.32 0 l0 -14.16 l1.32 0 z M84.25999999999999 20.24 q-1.76 0 -2.64 -0.99 t-0.88 -3.03 l0 -5.46 l1.2 0 l0 5.4 q0 1.5 0.57 2.25 t1.75 0.75 q1.46 0 2.32 -1 t0.88 -2.82 l0 -4.58 l1.2 0 l0 6.74 q0.04 1.02 0.1 2.5 l-1.2 0 q-0.02 -1.14 -0.08 -1.62 l-0.06 0 q-0.4 0.86 -1.27 1.36 t-1.89 0.5 z M92.78 15.379999999999999 q0 1.6 1.15 2.67 t2.71 1.11 q1.62 0 2.64 -1.09 t1.02 -2.69 q0 -1.64 -1.03 -2.71 t-2.65 -1.07 q-1.58 0 -2.69 1.09 t-1.15 2.69 z M91.7 4.880000000000001 l1.2 0 l0 7.5 l0.04 0 q0.52 -0.9 1.54 -1.38 t2.16 -0.48 q2.16 0 3.51 1.4 t1.35 3.46 q0 2.14 -1.38 3.49 t-3.48 1.37 q-1.18 0 -2.21 -0.52 t-1.49 -1.34 l-0.04 0 l0 1.62 l-1.2 0 l0 -15.12 z"/>
  </g>
</svg>
